<svg width="18" height="15" viewBox="0 0 18 15" fill="none" xmlns="http://www.w3.org/2000/svg">
<path d="M0.642857 2.7551H17.3571C17.7122 2.7551 18 2.48101 18 2.14286V0.612245C18 0.274094 17.7122 0 17.3571 0H0.642857C0.287799 0 0 0.274094 0 0.612245V2.14286C0 2.48101 0.287799 2.7551 0.642857 2.7551ZM0.642857 8.87755H17.3571C17.7122 8.87755 18 8.60346 18 8.26531V6.73469C18 6.39654 17.7122 6.12245 17.3571 6.12245H0.642857C0.287799 6.12245 0 6.39654 0 6.73469V8.26531C0 8.60346 0.287799 8.87755 0.642857 8.87755ZM0.642857 15H17.3571C17.7122 15 18 14.7259 18 14.3878V12.8571C18 12.519 17.7122 12.2449 17.3571 12.2449H0.642857C0.287799 12.2449 0 12.519 0 12.8571V14.3878C0 14.7259 0.287799 15 0.642857 15Z" fill="#666"/>
</svg>
